<mxfile host="app.diagrams.net" agent="Mozilla/5.0 (Windows NT 10.0; Win64; x64) AppleWebKit/537.36 (KHTML, like Gecko) Chrome/129.0.0.0 Safari/537.36" version="24.7.16">
  <diagram id="R2lEEEUBdFMjLlhIrx00" name="Page-1">
    <mxGraphModel dx="2017" dy="1757" grid="1" gridSize="10" guides="1" tooltips="1" connect="1" arrows="1" fold="1" page="1" pageScale="1" pageWidth="850" pageHeight="1100" math="0" shadow="0" extFonts="Permanent Marker^https://fonts.googleapis.com/css?family=Permanent+Marker">
      <root>
        <mxCell id="0" />
        <mxCell id="1" parent="0" />
        <mxCell id="O875fB-SGDAagxa92_g7-35" style="edgeStyle=orthogonalEdgeStyle;rounded=0;orthogonalLoop=1;jettySize=auto;html=1;entryX=0.5;entryY=0;entryDx=0;entryDy=0;fontFamily=Times New Roman;fontSize=13;" edge="1" parent="1" source="O875fB-SGDAagxa92_g7-36" target="O875fB-SGDAagxa92_g7-37">
          <mxGeometry relative="1" as="geometry" />
        </mxCell>
        <mxCell id="O875fB-SGDAagxa92_g7-36" value="&lt;b style=&quot;font-size: 13px;&quot;&gt;LocationID&lt;/b&gt;" style="rounded=0;whiteSpace=wrap;html=1;fillColor=#f8cecc;strokeColor=#b85450;fontFamily=Times New Roman;fontSize=13;" vertex="1" parent="1">
          <mxGeometry x="-228" y="-442.4" width="86" height="60" as="geometry" />
        </mxCell>
        <mxCell id="O875fB-SGDAagxa92_g7-37" value="&lt;span style=&quot;font-size: 13px;&quot;&gt;Street&lt;/span&gt;" style="rounded=0;whiteSpace=wrap;html=1;fontFamily=Times New Roman;fontSize=13;" vertex="1" parent="1">
          <mxGeometry x="-142" y="-442.4" width="68" height="60" as="geometry" />
        </mxCell>
        <mxCell id="O875fB-SGDAagxa92_g7-38" value="&lt;span style=&quot;font-size: 13px;&quot;&gt;City&lt;/span&gt;" style="rounded=0;whiteSpace=wrap;html=1;fontFamily=Times New Roman;fontSize=13;" vertex="1" parent="1">
          <mxGeometry x="-74" y="-442.4" width="70" height="60" as="geometry" />
        </mxCell>
        <mxCell id="O875fB-SGDAagxa92_g7-39" value="&lt;span style=&quot;font-size: 13px;&quot;&gt;Province&lt;/span&gt;" style="rounded=0;whiteSpace=wrap;html=1;fontFamily=Times New Roman;fontSize=13;" vertex="1" parent="1">
          <mxGeometry x="-4" y="-442.4" width="68" height="60" as="geometry" />
        </mxCell>
        <mxCell id="O875fB-SGDAagxa92_g7-40" value="" style="edgeStyle=elbowEdgeStyle;elbow=vertical;endArrow=classic;html=1;curved=0;rounded=0;endSize=8;startSize=8;fontFamily=Times New Roman;fontSize=13;" edge="1" parent="1">
          <mxGeometry width="50" height="50" relative="1" as="geometry">
            <mxPoint x="-108" y="-462.6" as="sourcePoint" />
            <mxPoint x="-45" y="-443" as="targetPoint" />
            <Array as="points">
              <mxPoint x="-95" y="-463" />
            </Array>
          </mxGeometry>
        </mxCell>
        <mxCell id="O875fB-SGDAagxa92_g7-41" value="" style="edgeStyle=elbowEdgeStyle;elbow=vertical;endArrow=classic;html=1;curved=0;rounded=0;endSize=8;startSize=8;fontFamily=Times New Roman;fontSize=13;" edge="1" parent="1">
          <mxGeometry width="50" height="50" relative="1" as="geometry">
            <mxPoint x="-45" y="-463.6" as="sourcePoint" />
            <mxPoint x="33" y="-444" as="targetPoint" />
            <Array as="points">
              <mxPoint x="-17" y="-464" />
            </Array>
          </mxGeometry>
        </mxCell>
        <mxCell id="O875fB-SGDAagxa92_g7-42" style="edgeStyle=orthogonalEdgeStyle;rounded=0;orthogonalLoop=1;jettySize=auto;html=1;entryX=0.5;entryY=0;entryDx=0;entryDy=0;fontFamily=Times New Roman;fontSize=13;" edge="1" parent="1" source="O875fB-SGDAagxa92_g7-43" target="O875fB-SGDAagxa92_g7-44">
          <mxGeometry relative="1" as="geometry" />
        </mxCell>
        <mxCell id="O875fB-SGDAagxa92_g7-43" value="&lt;b style=&quot;font-size: 13px;&quot;&gt;VIN &lt;/b&gt;" style="rounded=0;whiteSpace=wrap;html=1;fillColor=#f8cecc;strokeColor=#b85450;fontFamily=Times New Roman;fontSize=13;" vertex="1" parent="1">
          <mxGeometry x="-233" y="-287.4" width="86" height="60" as="geometry" />
        </mxCell>
        <mxCell id="O875fB-SGDAagxa92_g7-44" value="&lt;span style=&quot;font-size: 13px;&quot;&gt;LicensePlate&lt;/span&gt;" style="rounded=0;whiteSpace=wrap;html=1;fontFamily=Times New Roman;fontSize=13;" vertex="1" parent="1">
          <mxGeometry x="-147" y="-287.4" width="82" height="60" as="geometry" />
        </mxCell>
        <mxCell id="O875fB-SGDAagxa92_g7-45" value="&lt;span style=&quot;font-size: 13px;&quot;&gt;Make&lt;/span&gt;" style="rounded=0;whiteSpace=wrap;html=1;fontFamily=Times New Roman;fontSize=13;" vertex="1" parent="1">
          <mxGeometry x="-65" y="-287.4" width="73" height="60" as="geometry" />
        </mxCell>
        <mxCell id="O875fB-SGDAagxa92_g7-46" value="&lt;span style=&quot;font-size: 13px;&quot;&gt;Model&lt;/span&gt;" style="rounded=0;whiteSpace=wrap;html=1;fontFamily=Times New Roman;fontSize=13;" vertex="1" parent="1">
          <mxGeometry x="8" y="-287.4" width="75" height="60" as="geometry" />
        </mxCell>
        <mxCell id="O875fB-SGDAagxa92_g7-47" value="" style="edgeStyle=elbowEdgeStyle;elbow=vertical;endArrow=classic;html=1;curved=0;rounded=0;endSize=8;startSize=8;fontFamily=Times New Roman;fontSize=13;" edge="1" parent="1">
          <mxGeometry width="50" height="50" relative="1" as="geometry">
            <mxPoint x="-105" y="-307.4" as="sourcePoint" />
            <mxPoint x="-41" y="-287.4" as="targetPoint" />
            <Array as="points">
              <mxPoint x="-91" y="-307.4" />
            </Array>
          </mxGeometry>
        </mxCell>
        <mxCell id="O875fB-SGDAagxa92_g7-48" value="&lt;span style=&quot;font-size: 13px;&quot;&gt;Year&lt;/span&gt;" style="rounded=0;whiteSpace=wrap;html=1;fontFamily=Times New Roman;fontSize=13;" vertex="1" parent="1">
          <mxGeometry x="83" y="-287.4" width="78" height="60" as="geometry" />
        </mxCell>
        <mxCell id="O875fB-SGDAagxa92_g7-49" value="&lt;span style=&quot;font-size: 13px;&quot;&gt;Color&lt;/span&gt;" style="rounded=0;whiteSpace=wrap;html=1;fontFamily=Times New Roman;fontSize=13;" vertex="1" parent="1">
          <mxGeometry x="161" y="-287.4" width="78" height="60" as="geometry" />
        </mxCell>
        <mxCell id="O875fB-SGDAagxa92_g7-50" value="&lt;span style=&quot;font-size: 13px;&quot;&gt;Category&lt;/span&gt;" style="rounded=0;whiteSpace=wrap;html=1;fontFamily=Times New Roman;fontSize=13;" vertex="1" parent="1">
          <mxGeometry x="239" y="-287.4" width="74" height="60" as="geometry" />
        </mxCell>
        <mxCell id="O875fB-SGDAagxa92_g7-51" value="&lt;b&gt;&lt;font face=&quot;Times New Roman&quot;&gt;RentalLocation&lt;/font&gt;&lt;/b&gt;" style="text;html=1;align=center;verticalAlign=middle;resizable=0;points=[];autosize=1;strokeColor=none;fillColor=none;fontSize=16;" vertex="1" parent="1">
          <mxGeometry x="-228" y="-515" width="124" height="31" as="geometry" />
        </mxCell>
        <mxCell id="O875fB-SGDAagxa92_g7-52" value="&lt;b style=&quot;&quot;&gt;&lt;font style=&quot;font-size: 14px;&quot;&gt;Vehicle&lt;/font&gt;&lt;/b&gt;" style="text;html=1;align=center;verticalAlign=middle;resizable=0;points=[];autosize=1;strokeColor=none;fillColor=none;fontSize=13;fontFamily=Times New Roman;" vertex="1" parent="1">
          <mxGeometry x="-233" y="-349" width="61" height="29" as="geometry" />
        </mxCell>
        <mxCell id="O875fB-SGDAagxa92_g7-69" style="edgeStyle=orthogonalEdgeStyle;rounded=0;orthogonalLoop=1;jettySize=auto;html=1;entryX=0.75;entryY=1;entryDx=0;entryDy=0;" edge="1" parent="1" source="O875fB-SGDAagxa92_g7-53" target="O875fB-SGDAagxa92_g7-68">
          <mxGeometry relative="1" as="geometry" />
        </mxCell>
        <mxCell id="O875fB-SGDAagxa92_g7-135" style="edgeStyle=orthogonalEdgeStyle;rounded=0;orthogonalLoop=1;jettySize=auto;html=1;entryX=0.75;entryY=0;entryDx=0;entryDy=0;" edge="1" parent="1" source="O875fB-SGDAagxa92_g7-53" target="O875fB-SGDAagxa92_g7-54">
          <mxGeometry relative="1" as="geometry" />
        </mxCell>
        <mxCell id="O875fB-SGDAagxa92_g7-53" value="RentalID" style="rounded=0;whiteSpace=wrap;html=1;fillColor=#f8cecc;strokeColor=#b85450;fontFamily=Times New Roman;fontSize=13;" vertex="1" parent="1">
          <mxGeometry x="-233" y="-134" width="81" height="60" as="geometry" />
        </mxCell>
        <mxCell id="O875fB-SGDAagxa92_g7-54" value="&lt;span style=&quot;text-align: left; font-size: 13px;&quot;&gt;RentalStartDate&lt;/span&gt;" style="rounded=0;whiteSpace=wrap;html=1;fontFamily=Times New Roman;fontSize=13;" vertex="1" parent="1">
          <mxGeometry x="-153" y="-134" width="99" height="60" as="geometry" />
        </mxCell>
        <mxCell id="O875fB-SGDAagxa92_g7-55" value="&lt;span style=&quot;text-align: left; font-size: 13px;&quot;&gt;RentalEndDate&lt;/span&gt;" style="rounded=0;whiteSpace=wrap;html=1;fontFamily=Times New Roman;fontSize=13;" vertex="1" parent="1">
          <mxGeometry x="-54" y="-134" width="97" height="60" as="geometry" />
        </mxCell>
        <mxCell id="O875fB-SGDAagxa92_g7-56" value="&lt;span style=&quot;text-align: left; font-size: 13px;&quot;&gt;InitialOdometer&lt;/span&gt;" style="rounded=0;whiteSpace=wrap;html=1;fontFamily=Times New Roman;fontSize=13;" vertex="1" parent="1">
          <mxGeometry x="43" y="-134" width="101" height="60" as="geometry" />
        </mxCell>
        <mxCell id="O875fB-SGDAagxa92_g7-57" value="&lt;span style=&quot;text-align: left; font-size: 13px;&quot;&gt;ReturnOdometer&lt;/span&gt;" style="rounded=0;whiteSpace=wrap;html=1;fontFamily=Times New Roman;fontSize=13;" vertex="1" parent="1">
          <mxGeometry x="143" y="-134" width="108" height="60" as="geometry" />
        </mxCell>
        <mxCell id="O875fB-SGDAagxa92_g7-59" value="&lt;span style=&quot;font-family: Helvetica; font-size: 12px; text-align: left; background-color: rgb(255, 255, 255);&quot;&gt;InitialFuelLevel&lt;/span&gt;" style="rounded=0;whiteSpace=wrap;html=1;fontFamily=Times New Roman;fontSize=13;" vertex="1" parent="1">
          <mxGeometry x="251" y="-134" width="102" height="60" as="geometry" />
        </mxCell>
        <mxCell id="O875fB-SGDAagxa92_g7-60" value="&lt;b style=&quot;font-size: 13px;&quot;&gt;Rental&lt;/b&gt;" style="text;html=1;align=center;verticalAlign=middle;resizable=0;points=[];autosize=1;strokeColor=none;fillColor=none;fontSize=13;fontFamily=Times New Roman;" vertex="1" parent="1">
          <mxGeometry x="-239.5" y="-187" width="55" height="28" as="geometry" />
        </mxCell>
        <mxCell id="O875fB-SGDAagxa92_g7-62" value="&lt;span style=&quot;font-size: 13px;&quot;&gt;PostalCode&lt;/span&gt;" style="rounded=0;whiteSpace=wrap;html=1;fontFamily=Times New Roman;fontSize=13;" vertex="1" parent="1">
          <mxGeometry x="64" y="-442.4" width="79" height="60" as="geometry" />
        </mxCell>
        <mxCell id="O875fB-SGDAagxa92_g7-63" value="" style="edgeStyle=elbowEdgeStyle;elbow=vertical;endArrow=classic;html=1;curved=0;rounded=0;endSize=8;startSize=8;fontFamily=Times New Roman;fontSize=13;" edge="1" parent="1">
          <mxGeometry width="50" height="50" relative="1" as="geometry">
            <mxPoint x="23" y="-464.6" as="sourcePoint" />
            <mxPoint x="101" y="-445" as="targetPoint" />
            <Array as="points">
              <mxPoint x="51" y="-465" />
            </Array>
          </mxGeometry>
        </mxCell>
        <mxCell id="O875fB-SGDAagxa92_g7-64" value="" style="edgeStyle=elbowEdgeStyle;elbow=vertical;endArrow=classic;html=1;curved=0;rounded=0;endSize=8;startSize=8;fontFamily=Times New Roman;fontSize=13;" edge="1" parent="1">
          <mxGeometry width="50" height="50" relative="1" as="geometry">
            <mxPoint x="-46" y="-307" as="sourcePoint" />
            <mxPoint x="57" y="-287.4" as="targetPoint" />
            <Array as="points">
              <mxPoint x="7" y="-307.4" />
            </Array>
          </mxGeometry>
        </mxCell>
        <mxCell id="O875fB-SGDAagxa92_g7-65" value="" style="edgeStyle=elbowEdgeStyle;elbow=vertical;endArrow=classic;html=1;curved=0;rounded=0;endSize=8;startSize=8;fontFamily=Times New Roman;fontSize=13;" edge="1" parent="1">
          <mxGeometry width="50" height="50" relative="1" as="geometry">
            <mxPoint x="22" y="-307" as="sourcePoint" />
            <mxPoint x="125" y="-287.4" as="targetPoint" />
            <Array as="points">
              <mxPoint x="75" y="-307.4" />
            </Array>
          </mxGeometry>
        </mxCell>
        <mxCell id="O875fB-SGDAagxa92_g7-66" value="" style="edgeStyle=elbowEdgeStyle;elbow=vertical;endArrow=classic;html=1;curved=0;rounded=0;endSize=8;startSize=8;fontFamily=Times New Roman;fontSize=13;" edge="1" parent="1">
          <mxGeometry width="50" height="50" relative="1" as="geometry">
            <mxPoint x="85" y="-307" as="sourcePoint" />
            <mxPoint x="188" y="-287.4" as="targetPoint" />
            <Array as="points">
              <mxPoint x="138" y="-307.4" />
            </Array>
          </mxGeometry>
        </mxCell>
        <mxCell id="O875fB-SGDAagxa92_g7-67" value="" style="edgeStyle=elbowEdgeStyle;elbow=vertical;endArrow=classic;html=1;curved=0;rounded=0;endSize=8;startSize=8;fontFamily=Times New Roman;fontSize=13;" edge="1" parent="1">
          <mxGeometry width="50" height="50" relative="1" as="geometry">
            <mxPoint x="168" y="-307" as="sourcePoint" />
            <mxPoint x="271" y="-287.4" as="targetPoint" />
            <Array as="points">
              <mxPoint x="221" y="-307.4" />
            </Array>
          </mxGeometry>
        </mxCell>
        <mxCell id="O875fB-SGDAagxa92_g7-68" value="&lt;span style=&quot;text-align: left; font-size: 13px;&quot;&gt;ReturnFuelLevel&lt;/span&gt;" style="rounded=0;whiteSpace=wrap;html=1;fontFamily=Times New Roman;fontSize=13;" vertex="1" parent="1">
          <mxGeometry x="-153" y="-50" width="101" height="60" as="geometry" />
        </mxCell>
        <mxCell id="O875fB-SGDAagxa92_g7-71" value="&lt;div style=&quot;text-align: left;&quot;&gt;&lt;span style=&quot;background-color: initial;&quot;&gt;RentalCategory&lt;/span&gt;&lt;/div&gt;" style="rounded=0;whiteSpace=wrap;html=1;fontFamily=Times New Roman;fontSize=13;" vertex="1" parent="1">
          <mxGeometry x="-52" y="-50" width="100" height="60" as="geometry" />
        </mxCell>
        <mxCell id="O875fB-SGDAagxa92_g7-72" value="&lt;div style=&quot;text-align: left;&quot;&gt;Price&lt;/div&gt;" style="rounded=0;whiteSpace=wrap;html=1;fontFamily=Times New Roman;fontSize=13;" vertex="1" parent="1">
          <mxGeometry x="48" y="-50" width="60" height="60" as="geometry" />
        </mxCell>
        <mxCell id="O875fB-SGDAagxa92_g7-73" value="&lt;div style=&quot;text-align: left;&quot;&gt;&lt;span style=&quot;font-family: Helvetica; font-size: 12px; background-color: rgb(255, 255, 255);&quot;&gt;DropOffCharge&lt;/span&gt;&lt;br&gt;&lt;/div&gt;" style="rounded=0;whiteSpace=wrap;html=1;fontFamily=Times New Roman;fontSize=13;" vertex="1" parent="1">
          <mxGeometry x="108" y="-50" width="90" height="60" as="geometry" />
        </mxCell>
        <mxCell id="O875fB-SGDAagxa92_g7-74" value="&lt;div style=&quot;text-align: left;&quot;&gt;&lt;span style=&quot;font-family: Helvetica; font-size: 12px; background-color: rgb(255, 255, 255);&quot;&gt;CustomerID&lt;/span&gt;&lt;br&gt;&lt;/div&gt;" style="rounded=0;whiteSpace=wrap;html=1;fontFamily=Times New Roman;fontSize=13;" vertex="1" parent="1">
          <mxGeometry x="198" y="-50" width="90" height="60" as="geometry" />
        </mxCell>
        <mxCell id="O875fB-SGDAagxa92_g7-75" value="VIN" style="rounded=0;whiteSpace=wrap;html=1;fontFamily=Times New Roman;fontSize=13;" vertex="1" parent="1">
          <mxGeometry x="288" y="-50" width="59" height="60" as="geometry" />
        </mxCell>
        <mxCell id="O875fB-SGDAagxa92_g7-76" value="" style="edgeStyle=elbowEdgeStyle;elbow=vertical;endArrow=classic;html=1;curved=0;rounded=0;endSize=8;startSize=8;fontFamily=Times New Roman;fontSize=13;entryX=0.5;entryY=1;entryDx=0;entryDy=0;" edge="1" parent="1" target="O875fB-SGDAagxa92_g7-71">
          <mxGeometry width="50" height="50" relative="1" as="geometry">
            <mxPoint x="-92" y="30" as="sourcePoint" />
            <mxPoint x="-19" y="50" as="targetPoint" />
            <Array as="points">
              <mxPoint x="-69" y="30" />
            </Array>
          </mxGeometry>
        </mxCell>
        <mxCell id="O875fB-SGDAagxa92_g7-77" value="" style="edgeStyle=elbowEdgeStyle;elbow=vertical;endArrow=classic;html=1;curved=0;rounded=0;endSize=8;startSize=8;fontFamily=Times New Roman;fontSize=13;entryX=0.5;entryY=1;entryDx=0;entryDy=0;" edge="1" parent="1">
          <mxGeometry width="50" height="50" relative="1" as="geometry">
            <mxPoint x="-1" y="29" as="sourcePoint" />
            <mxPoint x="89" y="9" as="targetPoint" />
            <Array as="points">
              <mxPoint x="22" y="29" />
            </Array>
          </mxGeometry>
        </mxCell>
        <mxCell id="O875fB-SGDAagxa92_g7-81" value="" style="edgeStyle=elbowEdgeStyle;elbow=vertical;endArrow=classic;html=1;curved=0;rounded=0;endSize=8;startSize=8;fontFamily=Times New Roman;fontSize=13;entryX=0.5;entryY=1;entryDx=0;entryDy=0;" edge="1" parent="1">
          <mxGeometry width="50" height="50" relative="1" as="geometry">
            <mxPoint x="65" y="29" as="sourcePoint" />
            <mxPoint x="155" y="9" as="targetPoint" />
            <Array as="points">
              <mxPoint x="88" y="29" />
            </Array>
          </mxGeometry>
        </mxCell>
        <mxCell id="O875fB-SGDAagxa92_g7-82" value="" style="edgeStyle=elbowEdgeStyle;elbow=vertical;endArrow=classic;html=1;curved=0;rounded=0;endSize=8;startSize=8;fontFamily=Times New Roman;fontSize=13;entryX=0.5;entryY=1;entryDx=0;entryDy=0;" edge="1" parent="1">
          <mxGeometry width="50" height="50" relative="1" as="geometry">
            <mxPoint x="157" y="29" as="sourcePoint" />
            <mxPoint x="219" y="9" as="targetPoint" />
            <Array as="points">
              <mxPoint x="152" y="29" />
            </Array>
          </mxGeometry>
        </mxCell>
        <mxCell id="O875fB-SGDAagxa92_g7-104" style="edgeStyle=orthogonalEdgeStyle;rounded=0;orthogonalLoop=1;jettySize=auto;html=1;entryX=0.5;entryY=0;entryDx=0;entryDy=0;fontFamily=Times New Roman;fontSize=13;" edge="1" parent="1" source="O875fB-SGDAagxa92_g7-105" target="O875fB-SGDAagxa92_g7-106">
          <mxGeometry relative="1" as="geometry" />
        </mxCell>
        <mxCell id="O875fB-SGDAagxa92_g7-105" value="&lt;b style=&quot;font-size: 13px;&quot;&gt;EmployeeID&lt;/b&gt;" style="rounded=0;whiteSpace=wrap;html=1;fillColor=#f8cecc;strokeColor=#b85450;fontFamily=Times New Roman;fontSize=13;" vertex="1" parent="1">
          <mxGeometry x="-227" y="128.60000000000002" width="86" height="60" as="geometry" />
        </mxCell>
        <mxCell id="O875fB-SGDAagxa92_g7-106" value="&lt;span style=&quot;font-family: Helvetica; font-size: 12px; text-align: left; background-color: rgb(255, 255, 255);&quot;&gt;Name&lt;/span&gt;" style="rounded=0;whiteSpace=wrap;html=1;fontFamily=Times New Roman;fontSize=13;" vertex="1" parent="1">
          <mxGeometry x="-141" y="128.60000000000002" width="82" height="60" as="geometry" />
        </mxCell>
        <mxCell id="O875fB-SGDAagxa92_g7-107" value="&lt;span style=&quot;font-family: Helvetica; font-size: 12px; text-align: left; background-color: rgb(255, 255, 255);&quot;&gt;Address&lt;/span&gt;" style="rounded=0;whiteSpace=wrap;html=1;fontFamily=Times New Roman;fontSize=13;" vertex="1" parent="1">
          <mxGeometry x="-59" y="128.60000000000002" width="73" height="60" as="geometry" />
        </mxCell>
        <mxCell id="O875fB-SGDAagxa92_g7-108" value="&lt;span style=&quot;font-family: Helvetica; font-size: 12px; text-align: left; background-color: rgb(255, 255, 255);&quot;&gt;DriverLicenseNumber&lt;/span&gt;" style="rounded=0;whiteSpace=wrap;html=1;fontFamily=Times New Roman;fontSize=13;" vertex="1" parent="1">
          <mxGeometry x="14" y="128.60000000000002" width="135" height="60" as="geometry" />
        </mxCell>
        <mxCell id="O875fB-SGDAagxa92_g7-109" value="" style="edgeStyle=elbowEdgeStyle;elbow=vertical;endArrow=classic;html=1;curved=0;rounded=0;endSize=8;startSize=8;fontFamily=Times New Roman;fontSize=13;" edge="1" parent="1">
          <mxGeometry width="50" height="50" relative="1" as="geometry">
            <mxPoint x="-99" y="108.60000000000002" as="sourcePoint" />
            <mxPoint x="-35" y="128.60000000000002" as="targetPoint" />
            <Array as="points">
              <mxPoint x="-85" y="108.60000000000002" />
            </Array>
          </mxGeometry>
        </mxCell>
        <mxCell id="O875fB-SGDAagxa92_g7-110" value="&lt;span style=&quot;font-family: Helvetica; font-size: 12px; text-align: left; background-color: rgb(255, 255, 255);&quot;&gt;Role&lt;/span&gt;" style="rounded=0;whiteSpace=wrap;html=1;fontFamily=Times New Roman;fontSize=13;" vertex="1" parent="1">
          <mxGeometry x="150" y="128.60000000000002" width="78" height="60" as="geometry" />
        </mxCell>
        <mxCell id="O875fB-SGDAagxa92_g7-111" value="&lt;span style=&quot;font-family: Helvetica; font-size: 12px; text-align: left; background-color: rgb(255, 255, 255);&quot;&gt;LocationID&lt;/span&gt;" style="rounded=0;whiteSpace=wrap;html=1;fontFamily=Times New Roman;fontSize=13;" vertex="1" parent="1">
          <mxGeometry x="226" y="128.60000000000002" width="78" height="60" as="geometry" />
        </mxCell>
        <mxCell id="O875fB-SGDAagxa92_g7-113" value="&lt;b style=&quot;&quot;&gt;&lt;font style=&quot;font-size: 14px;&quot;&gt;Employee&lt;/font&gt;&lt;/b&gt;" style="text;html=1;align=center;verticalAlign=middle;resizable=0;points=[];autosize=1;strokeColor=none;fillColor=none;fontSize=13;fontFamily=Times New Roman;" vertex="1" parent="1">
          <mxGeometry x="-239.5" y="65" width="80" height="30" as="geometry" />
        </mxCell>
        <mxCell id="O875fB-SGDAagxa92_g7-114" value="" style="edgeStyle=elbowEdgeStyle;elbow=vertical;endArrow=classic;html=1;curved=0;rounded=0;endSize=8;startSize=8;fontFamily=Times New Roman;fontSize=13;" edge="1" parent="1">
          <mxGeometry width="50" height="50" relative="1" as="geometry">
            <mxPoint x="-40" y="109" as="sourcePoint" />
            <mxPoint x="63" y="128.60000000000002" as="targetPoint" />
            <Array as="points">
              <mxPoint x="13" y="108.60000000000002" />
            </Array>
          </mxGeometry>
        </mxCell>
        <mxCell id="O875fB-SGDAagxa92_g7-115" value="" style="edgeStyle=elbowEdgeStyle;elbow=vertical;endArrow=classic;html=1;curved=0;rounded=0;endSize=8;startSize=8;fontFamily=Times New Roman;fontSize=13;" edge="1" parent="1">
          <mxGeometry width="50" height="50" relative="1" as="geometry">
            <mxPoint x="49" y="109" as="sourcePoint" />
            <mxPoint x="197" y="128.60000000000002" as="targetPoint" />
            <Array as="points">
              <mxPoint x="147" y="108.60000000000002" />
            </Array>
          </mxGeometry>
        </mxCell>
        <mxCell id="O875fB-SGDAagxa92_g7-116" value="" style="edgeStyle=elbowEdgeStyle;elbow=vertical;endArrow=classic;html=1;curved=0;rounded=0;endSize=8;startSize=8;fontFamily=Times New Roman;fontSize=13;" edge="1" parent="1">
          <mxGeometry width="50" height="50" relative="1" as="geometry">
            <mxPoint x="172" y="109" as="sourcePoint" />
            <mxPoint x="275" y="128.60000000000002" as="targetPoint" />
            <Array as="points">
              <mxPoint x="225" y="108.60000000000002" />
            </Array>
          </mxGeometry>
        </mxCell>
        <mxCell id="O875fB-SGDAagxa92_g7-118" style="edgeStyle=orthogonalEdgeStyle;rounded=0;orthogonalLoop=1;jettySize=auto;html=1;entryX=0.5;entryY=0;entryDx=0;entryDy=0;fontFamily=Times New Roman;fontSize=13;" edge="1" parent="1" source="O875fB-SGDAagxa92_g7-119" target="O875fB-SGDAagxa92_g7-120">
          <mxGeometry relative="1" as="geometry" />
        </mxCell>
        <mxCell id="O875fB-SGDAagxa92_g7-119" value="&lt;div style=&quot;text-align: left;&quot;&gt;CustomerID&lt;/div&gt;" style="rounded=0;whiteSpace=wrap;html=1;fillColor=#f8cecc;strokeColor=#b85450;fontFamily=Times New Roman;fontSize=13;" vertex="1" parent="1">
          <mxGeometry x="-228" y="416.6" width="86" height="60" as="geometry" />
        </mxCell>
        <mxCell id="O875fB-SGDAagxa92_g7-120" value="&lt;span style=&quot;font-family: Helvetica; font-size: 12px; text-align: left; background-color: rgb(255, 255, 255);&quot;&gt;Name&lt;/span&gt;" style="rounded=0;whiteSpace=wrap;html=1;fontFamily=Times New Roman;fontSize=13;" vertex="1" parent="1">
          <mxGeometry x="-142" y="416.6" width="82" height="60" as="geometry" />
        </mxCell>
        <mxCell id="O875fB-SGDAagxa92_g7-121" value="&lt;span style=&quot;font-family: Helvetica; font-size: 12px; text-align: left; background-color: rgb(255, 255, 255);&quot;&gt;Address&lt;/span&gt;" style="rounded=0;whiteSpace=wrap;html=1;fontFamily=Times New Roman;fontSize=13;" vertex="1" parent="1">
          <mxGeometry x="-60" y="416.6" width="73" height="60" as="geometry" />
        </mxCell>
        <mxCell id="O875fB-SGDAagxa92_g7-122" value="&lt;span style=&quot;font-family: Helvetica; font-size: 12px; text-align: left; background-color: rgb(255, 255, 255);&quot;&gt;PhoneNumber&lt;/span&gt;" style="rounded=0;whiteSpace=wrap;html=1;fontFamily=Times New Roman;fontSize=13;" vertex="1" parent="1">
          <mxGeometry x="13" y="416.6" width="115" height="60" as="geometry" />
        </mxCell>
        <mxCell id="O875fB-SGDAagxa92_g7-123" value="" style="edgeStyle=elbowEdgeStyle;elbow=vertical;endArrow=classic;html=1;curved=0;rounded=0;endSize=8;startSize=8;fontFamily=Times New Roman;fontSize=13;" edge="1" parent="1">
          <mxGeometry width="50" height="50" relative="1" as="geometry">
            <mxPoint x="-100" y="396.6" as="sourcePoint" />
            <mxPoint x="-36" y="416.6" as="targetPoint" />
            <Array as="points">
              <mxPoint x="-86" y="396.6" />
            </Array>
          </mxGeometry>
        </mxCell>
        <mxCell id="O875fB-SGDAagxa92_g7-124" value="&lt;span style=&quot;font-family: Helvetica; font-size: 12px; text-align: left; background-color: rgb(255, 255, 255);&quot;&gt;DriverLicenseNumber&lt;/span&gt;" style="rounded=0;whiteSpace=wrap;html=1;fontFamily=Times New Roman;fontSize=13;" vertex="1" parent="1">
          <mxGeometry x="129" y="416.6" width="140" height="60" as="geometry" />
        </mxCell>
        <mxCell id="O875fB-SGDAagxa92_g7-126" value="&lt;span style=&quot;font-size: 14px;&quot;&gt;&lt;b&gt;Customer&lt;/b&gt;&lt;/span&gt;" style="text;html=1;align=center;verticalAlign=middle;resizable=0;points=[];autosize=1;strokeColor=none;fillColor=none;fontSize=13;fontFamily=Times New Roman;" vertex="1" parent="1">
          <mxGeometry x="-233" y="365" width="80" height="30" as="geometry" />
        </mxCell>
        <mxCell id="O875fB-SGDAagxa92_g7-127" value="" style="edgeStyle=elbowEdgeStyle;elbow=vertical;endArrow=classic;html=1;curved=0;rounded=0;endSize=8;startSize=8;fontFamily=Times New Roman;fontSize=13;" edge="1" parent="1">
          <mxGeometry width="50" height="50" relative="1" as="geometry">
            <mxPoint x="-41" y="397" as="sourcePoint" />
            <mxPoint x="62" y="416.6" as="targetPoint" />
            <Array as="points">
              <mxPoint x="12" y="396.6" />
            </Array>
          </mxGeometry>
        </mxCell>
        <mxCell id="O875fB-SGDAagxa92_g7-128" value="" style="edgeStyle=elbowEdgeStyle;elbow=vertical;endArrow=classic;html=1;curved=0;rounded=0;endSize=8;startSize=8;fontFamily=Times New Roman;fontSize=13;" edge="1" parent="1">
          <mxGeometry width="50" height="50" relative="1" as="geometry">
            <mxPoint x="56" y="397" as="sourcePoint" />
            <mxPoint x="204" y="416.6" as="targetPoint" />
            <Array as="points">
              <mxPoint x="154" y="396.6" />
            </Array>
          </mxGeometry>
        </mxCell>
        <mxCell id="O875fB-SGDAagxa92_g7-136" value="" style="edgeStyle=elbowEdgeStyle;elbow=vertical;endArrow=classic;html=1;curved=0;rounded=0;endSize=8;startSize=8;fontFamily=Times New Roman;fontSize=13;" edge="1" parent="1">
          <mxGeometry width="50" height="50" relative="1" as="geometry">
            <mxPoint x="-92" y="-154" as="sourcePoint" />
            <mxPoint x="-11" y="-134.39999999999998" as="targetPoint" />
            <Array as="points">
              <mxPoint x="-61" y="-154.39999999999998" />
            </Array>
          </mxGeometry>
        </mxCell>
        <mxCell id="O875fB-SGDAagxa92_g7-137" value="" style="edgeStyle=elbowEdgeStyle;elbow=vertical;endArrow=classic;html=1;curved=0;rounded=0;endSize=8;startSize=8;fontFamily=Times New Roman;fontSize=13;" edge="1" parent="1">
          <mxGeometry width="50" height="50" relative="1" as="geometry">
            <mxPoint x="-10" y="-155" as="sourcePoint" />
            <mxPoint x="71" y="-135.39999999999998" as="targetPoint" />
            <Array as="points">
              <mxPoint x="21" y="-155.39999999999998" />
            </Array>
          </mxGeometry>
        </mxCell>
        <mxCell id="O875fB-SGDAagxa92_g7-138" value="" style="edgeStyle=elbowEdgeStyle;elbow=vertical;endArrow=classic;html=1;curved=0;rounded=0;endSize=8;startSize=8;fontFamily=Times New Roman;fontSize=13;" edge="1" parent="1">
          <mxGeometry width="50" height="50" relative="1" as="geometry">
            <mxPoint x="68" y="-155" as="sourcePoint" />
            <mxPoint x="186" y="-135.39999999999998" as="targetPoint" />
            <Array as="points">
              <mxPoint x="136" y="-155.39999999999998" />
            </Array>
          </mxGeometry>
        </mxCell>
        <mxCell id="O875fB-SGDAagxa92_g7-139" value="" style="edgeStyle=elbowEdgeStyle;elbow=vertical;endArrow=classic;html=1;curved=0;rounded=0;endSize=8;startSize=8;fontFamily=Times New Roman;fontSize=13;" edge="1" parent="1">
          <mxGeometry width="50" height="50" relative="1" as="geometry">
            <mxPoint x="170" y="-155" as="sourcePoint" />
            <mxPoint x="288" y="-135.39999999999998" as="targetPoint" />
            <Array as="points">
              <mxPoint x="238" y="-155.39999999999998" />
            </Array>
          </mxGeometry>
        </mxCell>
        <mxCell id="O875fB-SGDAagxa92_g7-141" value="" style="edgeStyle=elbowEdgeStyle;elbow=vertical;endArrow=classic;html=1;curved=0;rounded=0;endSize=8;startSize=8;fontFamily=Times New Roman;fontSize=13;entryX=0.5;entryY=1;entryDx=0;entryDy=0;" edge="1" parent="1">
          <mxGeometry width="50" height="50" relative="1" as="geometry">
            <mxPoint x="218" y="29" as="sourcePoint" />
            <mxPoint x="313" y="9" as="targetPoint" />
            <Array as="points">
              <mxPoint x="246" y="29" />
            </Array>
          </mxGeometry>
        </mxCell>
        <mxCell id="O875fB-SGDAagxa92_g7-142" style="edgeStyle=orthogonalEdgeStyle;rounded=0;orthogonalLoop=1;jettySize=auto;html=1;entryX=0.5;entryY=0;entryDx=0;entryDy=0;fontFamily=Times New Roman;fontSize=13;" edge="1" parent="1" source="O875fB-SGDAagxa92_g7-143" target="O875fB-SGDAagxa92_g7-144">
          <mxGeometry relative="1" as="geometry" />
        </mxCell>
        <mxCell id="O875fB-SGDAagxa92_g7-143" value="&lt;div style=&quot;text-align: left;&quot;&gt;&lt;b style=&quot;font-size: 14px; text-align: center; text-wrap: nowrap;&quot;&gt;CustomerPhoneNumberID&lt;/b&gt;&lt;br&gt;&lt;/div&gt;" style="rounded=0;whiteSpace=wrap;html=1;fillColor=#f8cecc;strokeColor=#b85450;fontFamily=Times New Roman;fontSize=13;" vertex="1" parent="1">
          <mxGeometry x="-228" y="562.6" width="173" height="60" as="geometry" />
        </mxCell>
        <mxCell id="O875fB-SGDAagxa92_g7-144" value="&lt;span style=&quot;font-family: Helvetica; font-size: 12px; text-align: left; background-color: rgb(255, 255, 255);&quot;&gt;EmployeeID&lt;/span&gt;" style="rounded=0;whiteSpace=wrap;html=1;fontFamily=Times New Roman;fontSize=13;" vertex="1" parent="1">
          <mxGeometry x="-55" y="562.6" width="103" height="60" as="geometry" />
        </mxCell>
        <mxCell id="O875fB-SGDAagxa92_g7-145" value="&lt;span style=&quot;font-family: Helvetica; font-size: 12px; text-align: left; background-color: rgb(255, 255, 255);&quot;&gt;PhoneNumber&lt;/span&gt;" style="rounded=0;whiteSpace=wrap;html=1;fontFamily=Times New Roman;fontSize=13;" vertex="1" parent="1">
          <mxGeometry x="48" y="562.6" width="121" height="60" as="geometry" />
        </mxCell>
        <mxCell id="O875fB-SGDAagxa92_g7-147" value="" style="edgeStyle=elbowEdgeStyle;elbow=vertical;endArrow=classic;html=1;curved=0;rounded=0;endSize=8;startSize=8;fontFamily=Times New Roman;fontSize=13;" edge="1" parent="1">
          <mxGeometry width="50" height="50" relative="1" as="geometry">
            <mxPoint x="-22" y="543" as="sourcePoint" />
            <mxPoint x="91" y="562.6" as="targetPoint" />
            <Array as="points">
              <mxPoint x="118" y="543" />
            </Array>
          </mxGeometry>
        </mxCell>
        <mxCell id="O875fB-SGDAagxa92_g7-149" value="&lt;span style=&quot;font-size: 14px;&quot;&gt;&lt;b&gt;CustomerPhoneNumber&lt;/b&gt;&lt;/span&gt;" style="text;html=1;align=center;verticalAlign=middle;resizable=0;points=[];autosize=1;strokeColor=none;fillColor=none;fontSize=13;fontFamily=Times New Roman;" vertex="1" parent="1">
          <mxGeometry x="-239.5" y="505" width="170" height="30" as="geometry" />
        </mxCell>
        <mxCell id="O875fB-SGDAagxa92_g7-155" style="edgeStyle=orthogonalEdgeStyle;rounded=0;orthogonalLoop=1;jettySize=auto;html=1;entryX=0.5;entryY=0;entryDx=0;entryDy=0;fontFamily=Times New Roman;fontSize=13;" edge="1" parent="1" source="O875fB-SGDAagxa92_g7-156" target="O875fB-SGDAagxa92_g7-157">
          <mxGeometry relative="1" as="geometry" />
        </mxCell>
        <mxCell id="O875fB-SGDAagxa92_g7-156" value="&lt;div style=&quot;text-align: left;&quot;&gt;&lt;b style=&quot;font-size: 14px; text-align: center; text-wrap: nowrap;&quot;&gt;CustomerPhoneNumberID&lt;/b&gt;&lt;br&gt;&lt;/div&gt;" style="rounded=0;whiteSpace=wrap;html=1;fillColor=#f8cecc;strokeColor=#b85450;fontFamily=Times New Roman;fontSize=13;" vertex="1" parent="1">
          <mxGeometry x="-228" y="268.6" width="173" height="60" as="geometry" />
        </mxCell>
        <mxCell id="O875fB-SGDAagxa92_g7-157" value="&lt;span style=&quot;font-family: Helvetica; font-size: 12px; text-align: left; background-color: rgb(255, 255, 255);&quot;&gt;EmployeeID&lt;/span&gt;" style="rounded=0;whiteSpace=wrap;html=1;fontFamily=Times New Roman;fontSize=13;" vertex="1" parent="1">
          <mxGeometry x="-55" y="268.6" width="103" height="60" as="geometry" />
        </mxCell>
        <mxCell id="O875fB-SGDAagxa92_g7-158" value="&lt;span style=&quot;font-family: Helvetica; font-size: 12px; text-align: left; background-color: rgb(255, 255, 255);&quot;&gt;PhoneNumber&lt;/span&gt;" style="rounded=0;whiteSpace=wrap;html=1;fontFamily=Times New Roman;fontSize=13;" vertex="1" parent="1">
          <mxGeometry x="48" y="268.6" width="121" height="60" as="geometry" />
        </mxCell>
        <mxCell id="O875fB-SGDAagxa92_g7-159" value="" style="edgeStyle=elbowEdgeStyle;elbow=vertical;endArrow=classic;html=1;curved=0;rounded=0;endSize=8;startSize=8;fontFamily=Times New Roman;fontSize=13;" edge="1" parent="1">
          <mxGeometry width="50" height="50" relative="1" as="geometry">
            <mxPoint x="-22" y="249" as="sourcePoint" />
            <mxPoint x="91" y="268.6" as="targetPoint" />
            <Array as="points">
              <mxPoint x="118" y="249" />
            </Array>
          </mxGeometry>
        </mxCell>
        <mxCell id="O875fB-SGDAagxa92_g7-160" value="&lt;b&gt;&lt;font style=&quot;font-size: 14px;&quot;&gt;Employee&lt;/font&gt;&lt;/b&gt;&lt;span style=&quot;font-size: 14px;&quot;&gt;&lt;b&gt;PhoneNumber&lt;/b&gt;&lt;/span&gt;" style="text;html=1;align=center;verticalAlign=middle;resizable=0;points=[];autosize=1;strokeColor=none;fillColor=none;fontSize=13;fontFamily=Times New Roman;" vertex="1" parent="1">
          <mxGeometry x="-233" y="215" width="170" height="30" as="geometry" />
        </mxCell>
        <mxCell id="O875fB-SGDAagxa92_g7-161" style="edgeStyle=orthogonalEdgeStyle;rounded=0;orthogonalLoop=1;jettySize=auto;html=1;entryX=0.5;entryY=0;entryDx=0;entryDy=0;fontFamily=Times New Roman;fontSize=13;" edge="1" parent="1" source="O875fB-SGDAagxa92_g7-162" target="O875fB-SGDAagxa92_g7-163">
          <mxGeometry relative="1" as="geometry" />
        </mxCell>
        <mxCell id="O875fB-SGDAagxa92_g7-162" value="&lt;div style=&quot;text-align: left;&quot;&gt;PromotionID&lt;/div&gt;" style="rounded=0;whiteSpace=wrap;html=1;fillColor=#f8cecc;strokeColor=#b85450;fontFamily=Times New Roman;fontSize=13;" vertex="1" parent="1">
          <mxGeometry x="-235" y="735.6" width="86" height="60" as="geometry" />
        </mxCell>
        <mxCell id="O875fB-SGDAagxa92_g7-163" value="&lt;span style=&quot;font-family: Helvetica; font-size: 12px; text-align: left; background-color: rgb(255, 255, 255);&quot;&gt;DiscontRate&lt;/span&gt;" style="rounded=0;whiteSpace=wrap;html=1;fontFamily=Times New Roman;fontSize=13;" vertex="1" parent="1">
          <mxGeometry x="-149" y="735.6" width="82" height="60" as="geometry" />
        </mxCell>
        <mxCell id="O875fB-SGDAagxa92_g7-164" value="&lt;span style=&quot;font-family: Helvetica; font-size: 12px; text-align: left; background-color: rgb(255, 255, 255);&quot;&gt;StartDate&lt;/span&gt;" style="rounded=0;whiteSpace=wrap;html=1;fontFamily=Times New Roman;fontSize=13;" vertex="1" parent="1">
          <mxGeometry x="-67" y="735.6" width="73" height="60" as="geometry" />
        </mxCell>
        <mxCell id="O875fB-SGDAagxa92_g7-165" value="&lt;span style=&quot;font-family: Helvetica; font-size: 12px; text-align: left; background-color: rgb(255, 255, 255);&quot;&gt;EndDate&lt;/span&gt;" style="rounded=0;whiteSpace=wrap;html=1;fontFamily=Times New Roman;fontSize=13;" vertex="1" parent="1">
          <mxGeometry x="6" y="735.6" width="115" height="60" as="geometry" />
        </mxCell>
        <mxCell id="O875fB-SGDAagxa92_g7-166" value="" style="edgeStyle=elbowEdgeStyle;elbow=vertical;endArrow=classic;html=1;curved=0;rounded=0;endSize=8;startSize=8;fontFamily=Times New Roman;fontSize=13;" edge="1" parent="1">
          <mxGeometry width="50" height="50" relative="1" as="geometry">
            <mxPoint x="-107" y="715.6" as="sourcePoint" />
            <mxPoint x="-43" y="735.6" as="targetPoint" />
            <Array as="points">
              <mxPoint x="-93" y="715.6" />
            </Array>
          </mxGeometry>
        </mxCell>
        <mxCell id="O875fB-SGDAagxa92_g7-167" value="&lt;span style=&quot;font-family: Helvetica; font-size: 12px; text-align: left; background-color: rgb(255, 255, 255);&quot;&gt;ApplicableCategory&lt;/span&gt;" style="rounded=0;whiteSpace=wrap;html=1;fontFamily=Times New Roman;fontSize=13;" vertex="1" parent="1">
          <mxGeometry x="122" y="735.6" width="140" height="60" as="geometry" />
        </mxCell>
        <mxCell id="O875fB-SGDAagxa92_g7-168" value="&lt;span style=&quot;font-family: Helvetica; font-size: 12px; font-weight: 700; background-color: rgb(255, 255, 255);&quot;&gt;Promotion&lt;/span&gt;" style="text;html=1;align=center;verticalAlign=middle;resizable=0;points=[];autosize=1;strokeColor=none;fillColor=none;fontSize=13;fontFamily=Times New Roman;" vertex="1" parent="1">
          <mxGeometry x="-240" y="684" width="80" height="30" as="geometry" />
        </mxCell>
        <mxCell id="O875fB-SGDAagxa92_g7-169" value="" style="edgeStyle=elbowEdgeStyle;elbow=vertical;endArrow=classic;html=1;curved=0;rounded=0;endSize=8;startSize=8;fontFamily=Times New Roman;fontSize=13;" edge="1" parent="1">
          <mxGeometry width="50" height="50" relative="1" as="geometry">
            <mxPoint x="-48" y="716" as="sourcePoint" />
            <mxPoint x="55" y="735.6" as="targetPoint" />
            <Array as="points">
              <mxPoint x="5" y="715.6" />
            </Array>
          </mxGeometry>
        </mxCell>
        <mxCell id="O875fB-SGDAagxa92_g7-170" value="" style="edgeStyle=elbowEdgeStyle;elbow=vertical;endArrow=classic;html=1;curved=0;rounded=0;endSize=8;startSize=8;fontFamily=Times New Roman;fontSize=13;" edge="1" parent="1">
          <mxGeometry width="50" height="50" relative="1" as="geometry">
            <mxPoint x="49" y="716" as="sourcePoint" />
            <mxPoint x="197" y="735.6" as="targetPoint" />
            <Array as="points">
              <mxPoint x="147" y="715.6" />
            </Array>
          </mxGeometry>
        </mxCell>
      </root>
    </mxGraphModel>
  </diagram>
</mxfile>
